<svg height="33" viewBox="0 0 34 33" width="34" xmlns="http://www.w3.org/2000/svg" xmlns:xlink="http://www.w3.org/1999/xlink"><radialGradient id="a" cx="78.763611%" cy="37.847639%" gradientTransform="matrix(.719605 0 0 1 .220849 0)" r="124.891534%"><stop offset="0" stop-color="#f80090"/><stop offset="1" stop-color="#4d008e"/></radialGradient><radialGradient id="b" cx="68.738902%" cy="4.398337%" gradientTransform="matrix(.760963 0 0 1 .164311 0)" r="107.40132%"><stop offset="0" stop-color="#57008e"/><stop offset=".291746283" stop-color="#5c008e"/><stop offset="1" stop-color="#f80090"/></radialGradient><linearGradient id="c" x1="18.238653%" x2="81.159113%" y1="0%" y2="84.337476%"><stop offset="0" stop-color="#f70090"/><stop offset=".669712865" stop-color="#e50090"/><stop offset=".827147533" stop-color="#d6008f" stop-opacity=".2"/><stop offset="1" stop-color="#c10090" stop-opacity="0"/></linearGradient><linearGradient id="d" x1="64.906059%" x2="44.28977%" y1="71.558554%" y2="50%"><stop offset="0" stop-color="#b2008f" stop-opacity=".15134"/><stop offset=".400350765" stop-color="#f70090" stop-opacity=".4"/><stop offset=".648995536" stop-color="#f60090" stop-opacity=".891668"/><stop offset="1" stop-color="#ff0090"/></linearGradient><g fill="none" fill-rule="evenodd"><path d="m2.21600589 20.9924527c-1.74227605-9.3182241 2.86225304-18.30508931 13.43046291-19.50060956-1.4573635-1.56650086-3.448277-1.57827183-4.36429-1.38771544-1.61737492.51852268-1.56660002 1.57137115-3.40121584 2.93133354-1.82385716 1.04791209-2.7398687.24540921-4.06848114 1.33175495-1.32576898 1.07823638-.40068106 3.55347497-.95670995 4.03470214-.55194806.96240602-2.26409092 1.81976167-2.57575758 3.03535457-.25757576 1.5545818.6991342 2.6650502.66233766 3.9976124.11038961 1.1104686-1.09896537 1.7384014-.92521212 2.6383992.52045021 1.4703342 1.5235974 2.3553036 1.99650649 2.7632157.10844622.0768865.22298101.2662423.20235957.1559525z" fill="#ff0090"/><path d="m21.0209636 8.09348942c-.3860866 0-.6991341-.31491144-.6991341-.70329671 0-.38838526.3130475-.7032967.6991341-.7032967.3860867 0 .6991342.31491144.6991342.7032967 0 .38838527-.3130475.70329671-.6991342.70329671zm-18.39703478 13.91534728c-1.67431602-8.0984986 3.50672746-14.86539008 13.53989188-11.5339846 5.8872251 3.4645876 13.2930996 3.2389996 13.6270088.9994216.8243192-2.68480027-3.7532469-8.21746676-10.5974026-9.66107578-13.57792214-2.66512435-20.89788864 12.09714028-16.56949808 20.19563878z" fill="url(#a)" fill-rule="nonzero"/><path d="m24.8968458 22.9120546c2.016156.2197247 3.9299438-.2670307 5.7034633-1.7212262-2.6793767 3.0064084-6.0296278 4.517978-9.8736884 4.9292957 1.8354113 1.5696841 3.6053983 2.2767564 5.2987013 1.9741167-4.7050995 1.3060591-8.647079-.1315466-13.4423434-4.9353655-.2511076 1.2931924 1.1066354 3.3080154 2.5060813 4.59416-8.11981814-3.5412099-8.8316836-14.5724805 1.0696141-17.2859933-10.26386536-4.96063247-16.06751502 4.6779129-13.21610092 12.577637 2.78992478 6.0843933 10.22449362 10.7683265 18.37279232 9.7382558 3.9579141-.4876785 9.8682141-3.2327127 12.2826994-9.7382558-1.7016927 1.536148-4.7434945 2.8740602-6.1008813 2.9766873 4.5941213-2.3096263 7.0741209-6.2342061 6.3780174-11.5981769-.9516321 2.2790514-2.2072035 4.0293718-3.7777533 5.231491 3.3361938-5.231491 2.7637143-7.9354818.2943723-10.9072435 1.7662338 4.8860613-.5185368 10.3089231-5.4949741 14.1646177z" fill="url(#b)"/><path d="m22.5392205 28.5410642c-.3485883-.0655205.7902154.4640442-1.4114922-.122277-2.2017075-.5863213-4.4434898-1.1513356-8.5447497-5.2599119-.2511076 1.2931924 1.1066354 3.3080154 2.5060813 4.59416 3.7777891 2.650376 1.2086098 1.4107878 6.9647142 3.4125229.4618972-.9248843.4854464-1.7467468.4854464-2.624494z" fill="url(#c)"/><path d="m15.2204947 7.72908241s.5004481-.74305418.6952531-1.07817622c.2387201-.41066873.6053222-1.15919609.6053222-1.15919609s-3.8521373-1.26426649-4.7974922-1.41852591c-2.93869213.76737874-2.9493861 2.00589089-1.3064207 3.90160864.1828052.21098901 4.8033376-.24571042 4.8033376-.24571042z" fill="url(#d)"/></g></svg>