<?xml version="1.0" encoding="utf-8"?>
<!-- Generator: Adobe Illustrator 18.1.0, SVG Export Plug-In . SVG Version: 6.00 Build 0)  -->
<svg version="1.1" id="Layer_1" xmlns="http://www.w3.org/2000/svg" xmlns:xlink="http://www.w3.org/1999/xlink" x="0px" y="0px"
	 viewBox="0 0 24 20" enable-background="new 0 0 24 20" xml:space="preserve">
<g id="_x40__x3C_Group_x3E__159_">
	<g>
		<path d="M19.5,9h-15C2.0186,9,0,6.9814,0,4.5S2.0186,0,4.5,0h15C21.9814,0,24,2.0186,24,4.5S21.9814,9,19.5,9z M4.5,1
			C2.5703,1,1,2.5703,1,4.5S2.5703,8,4.5,8h15C21.4297,8,23,6.4297,23,4.5S21.4297,1,19.5,1H4.5z"/>
	</g>
	<g>
		<path fill-rule="evenodd" clip-rule="evenodd" d="M11,4.5C11,5.3284,10.3284,6,9.5,6h-5C3.6716,6,3,5.3284,3,4.5v0
			C3,3.6716,3.6716,3,4.5,3h5C10.3284,3,11,3.6716,11,4.5L11,4.5z"/>
	</g>
	<g>
		<path d="M19.5,20h-15C2.0186,20,0,17.9814,0,15.5S2.0186,11,4.5,11h15c2.4814,0,4.5,2.0186,4.5,4.5S21.9814,20,19.5,20z M4.5,12
			C2.5703,12,1,13.5703,1,15.5S2.5703,19,4.5,19h15c1.9297,0,3.5-1.5703,3.5-3.5S21.4297,12,19.5,12H4.5z"/>
	</g>
	<g>
		<path fill-rule="evenodd" clip-rule="evenodd" d="M21,15.5c0,0.8284-0.6716,1.5-1.5,1.5h-5c-0.8284,0-1.5-0.6716-1.5-1.5v0
			c0-0.8284,0.6716-1.5,1.5-1.5h5C20.3284,14,21,14.6716,21,15.5L21,15.5z"/>
	</g>
</g>
<g>
</g>
<g>
</g>
<g>
</g>
<g>
</g>
<g>
</g>
<g>
</g>
<g>
</g>
<g>
</g>
<g>
</g>
<g>
</g>
<g>
</g>
<g>
</g>
<g>
</g>
<g>
</g>
<g>
</g>
</svg>
